<svg width="12" height="12" viewBox="0 0 12 12" fill="none" xmlns="http://www.w3.org/2000/svg">
<path d="M2.91667 6.70821C3.15972 6.70821 3.36632 6.62314 3.53646 6.453C3.7066 6.28286 3.79167 6.07627 3.79167 5.83321C3.79167 5.59016 3.7066 5.38356 3.53646 5.21342C3.36632 5.04328 3.15972 4.95821 2.91667 4.95821C2.67361 4.95821 2.46701 5.04328 2.29688 5.21342C2.12674 5.38356 2.04167 5.59016 2.04167 5.83321C2.04167 6.07627 2.12674 6.28286 2.29688 6.453C2.46701 6.62314 2.67361 6.70821 2.91667 6.70821V6.70821M5.83333 6.70821C6.07639 6.70821 6.28299 6.62314 6.45312 6.453C6.62326 6.28286 6.70833 6.07627 6.70833 5.83321C6.70833 5.59016 6.62326 5.38356 6.45312 5.21342C6.28299 5.04328 6.07639 4.95821 5.83333 4.95821C5.59028 4.95821 5.38368 5.04328 5.21354 5.21342C5.0434 5.38356 4.95833 5.59016 4.95833 5.83321C4.95833 6.07627 5.0434 6.28286 5.21354 6.453C5.38368 6.62314 5.59028 6.70821 5.83333 6.70821V6.70821M8.75 6.70821C8.99306 6.70821 9.19965 6.62314 9.36979 6.453C9.53993 6.28286 9.625 6.07627 9.625 5.83321C9.625 5.59016 9.53993 5.38356 9.36979 5.21342C9.19965 5.04328 8.99306 4.95821 8.75 4.95821C8.50694 4.95821 8.30035 5.04328 8.13021 5.21342C7.96007 5.38356 7.875 5.59016 7.875 5.83321C7.875 6.07627 7.96007 6.28286 8.13021 6.453C8.30035 6.62314 8.50694 6.70821 8.75 6.70821V6.70821M5.83333 11.6665C5.02639 11.6665 4.26806 11.5134 3.55833 11.2072C2.84861 10.9009 2.23125 10.4853 1.70625 9.96029C1.18125 9.43529 0.765625 8.81793 0.459375 8.10821C0.153125 7.39849 0 6.64016 0 5.83321C0 5.02627 0.153125 4.26793 0.459375 3.55821C0.765625 2.84849 1.18125 2.23113 1.70625 1.70613C2.23125 1.18113 2.84861 0.765503 3.55833 0.459253C4.26806 0.153003 5.02639 -0.00012207 5.83333 -0.00012207C6.64028 -0.00012207 7.39861 0.153003 8.10833 0.459253C8.81806 0.765503 9.43542 1.18113 9.96042 1.70613C10.4854 2.23113 10.901 2.84849 11.2073 3.55821C11.5135 4.26793 11.6667 5.02627 11.6667 5.83321C11.6667 6.64016 11.5135 7.39849 11.2073 8.10821C10.901 8.81793 10.4854 9.43529 9.96042 9.96029C9.43542 10.4853 8.81806 10.9009 8.10833 11.2072C7.39861 11.5134 6.64028 11.6665 5.83333 11.6665V11.6665M5.83333 10.4999C7.13611 10.4999 8.23958 10.0478 9.14375 9.14363C10.0479 8.23946 10.5 7.13599 10.5 5.83321C10.5 4.53043 10.0479 3.42696 9.14375 2.52279C8.23958 1.61863 7.13611 1.16654 5.83333 1.16654C4.53056 1.16654 3.42708 1.61863 2.52292 2.52279C1.61875 3.42696 1.16667 4.53043 1.16667 5.83321C1.16667 7.13599 1.61875 8.23946 2.52292 9.14363C3.42708 10.0478 4.53056 10.4999 5.83333 10.4999V10.4999M5.83333 5.83321V5.83321V5.83321V5.83321V5.83321V5.83321V5.83321V5.83321V5.83321V5.83321" fill="#EA580C"/>
</svg>
