<svg width="19" height="25" viewBox="0 0 19 25" fill="none" xmlns="http://www.w3.org/2000/svg">
<path d="M2.33382 24.5C1.69215 24.5 1.14285 24.2715 0.685905 23.8146C0.22896 23.3576 0.000488281 22.8083 0.000488281 22.1667V10.5C0.000488281 9.85833 0.22896 9.30903 0.685905 8.85208C1.14285 8.39514 1.69215 8.16667 2.33382 8.16667H3.50049V5.83333C3.50049 4.21944 4.06924 2.84375 5.20674 1.70625C6.34424 0.56875 7.71993 0 9.33382 0C10.9477 0 12.3234 0.56875 13.4609 1.70625C14.5984 2.84375 15.1672 4.21944 15.1672 5.83333V8.16667H16.3338C16.9755 8.16667 17.5248 8.39514 17.9817 8.85208C18.4387 9.30903 18.6672 9.85833 18.6672 10.5V22.1667C18.6672 22.8083 18.4387 23.3576 17.9817 23.8146C17.5248 24.2715 16.9755 24.5 16.3338 24.5H2.33382V24.5M9.33382 18.6667C9.97549 18.6667 10.5248 18.4382 10.9817 17.9813C11.4387 17.5243 11.6672 16.975 11.6672 16.3333C11.6672 15.6917 11.4387 15.1424 10.9817 14.6854C10.5248 14.2285 9.97549 14 9.33382 14C8.69215 14 8.14285 14.2285 7.6859 14.6854C7.22896 15.1424 7.00049 15.6917 7.00049 16.3333C7.00049 16.975 7.22896 17.5243 7.6859 17.9813C8.14285 18.4382 8.69215 18.6667 9.33382 18.6667V18.6667M5.83382 8.16667H12.8338V5.83333C12.8338 4.86111 12.4935 4.03472 11.813 3.35417C11.1324 2.67361 10.306 2.33333 9.33382 2.33333C8.3616 2.33333 7.53521 2.67361 6.85465 3.35417C6.1741 4.03472 5.83382 4.86111 5.83382 5.83333V8.16667V8.16667" fill="#004AC6"/>
</svg>
