<svg width="382" height="428" viewBox="0 0 382 428" fill="none" xmlns="http://www.w3.org/2000/svg">
<path d="M223.231 61.8091C239.321 43.747 249.21 35.638 268.632 25.3859V326.153L223.231 335.535V61.8091Z" fill="white"/>
<path d="M368.294 213.021C377.706 193.153 378.813 184.324 381.334 163.943L33.3203 239.51C25.0676 257.893 22.4111 268.169 21.1393 286.419L368.294 213.021Z" fill="white"/>
<path d="M368.294 305.144C377.706 285.277 378.813 276.447 381.334 256.066L224.892 289.178C223.785 307.39 225.056 316.733 223.785 334.983L368.294 305.144Z" fill="white"/>
<path d="M368.294 397.255C377.706 377.388 378.813 368.558 381.334 348.177L238.734 379.133C231.536 389.066 227.107 405.622 223.785 427.094L368.294 397.255Z" fill="white"/>
<path d="M141.841 365.888C155.683 348.78 170.078 327.257 180.044 309.598L12.181 345.982C3.92825 364.365 1.27179 374.641 0 392.891L141.841 365.888Z" fill="white"/>
<path d="M134.643 36.4232C150.733 18.3612 160.622 10.2521 180.044 0V310.701L134.643 320.083V36.4232Z" fill="white"/>
</svg>
